<svg xmlns="http://www.w3.org/2000/svg" viewBox="0 0 512 512" width="512" height="512">
  <defs>
    <linearGradient id="bg" x1="0%" y1="0%" x2="0%" y2="100%">
      <stop offset="0%" style="stop-color:#5CC8F0;stop-opacity:1"/>
      <stop offset="100%" style="stop-color:#3DA8D8;stop-opacity:1"/>
    </linearGradient>
  </defs>
  <!-- 背景圆角矩形 -->
  <rect width="512" height="512" rx="96" ry="96" fill="url(#bg)"/>
  <!-- 日历主体 -->
  <rect x="100" y="140" width="312" height="280" rx="24" ry="24" fill="#FFFFFF" opacity="0.95"/>
  <!-- 日历顶部横条 -->
  <rect x="100" y="140" width="312" height="70" rx="24" ry="24" fill="#FFFFFF"/>
  <rect x="100" y="180" width="312" height="30" fill="#FFFFFF"/>
  <!-- 日历挂钩 -->
  <rect x="175" y="118" width="18" height="48" rx="9" ry="9" fill="#FFFFFF"/>
  <rect x="319" y="118" width="18" height="48" rx="9" ry="9" fill="#FFFFFF"/>
  <!-- 日期网格 - 第一行 -->
  <rect x="135" y="235" width="48" height="32" rx="8" ry="8" fill="#E8F4FD"/>
  <rect x="197" y="235" width="48" height="32" rx="8" ry="8" fill="#E8F4FD"/>
  <rect x="259" y="235" width="48" height="32" rx="8" ry="8" fill="#4DB8E8" opacity="0.3"/>
  <rect x="321" y="235" width="48" height="32" rx="8" ry="8" fill="#E8F4FD"/>
  <!-- 日期网格 - 第二行 -->
  <rect x="135" y="280" width="48" height="32" rx="8" ry="8" fill="#E8F4FD"/>
  <rect x="197" y="280" width="48" height="32" rx="8" ry="8" fill="#4DB8E8"/>
  <rect x="259" y="280" width="48" height="32" rx="8" ry="8" fill="#E8F4FD"/>
  <rect x="321" y="280" width="48" height="32" rx="8" ry="8" fill="#E8F4FD"/>
  <!-- 日期网格 - 第三行 -->
  <rect x="135" y="325" width="48" height="32" rx="8" ry="8" fill="#E8F4FD"/>
  <rect x="197" y="325" width="48" height="32" rx="8" ry="8" fill="#E8F4FD"/>
  <rect x="259" y="325" width="48" height="32" rx="8" ry="8" fill="#E8F4FD"/>
  <rect x="321" y="325" width="48" height="32" rx="8" ry="8" fill="#4DB8E8" opacity="0.3"/>
  <!-- 对勾标记（表示已完成） -->
  <circle cx="221" cy="296" r="14" fill="#4DB8E8"/>
  <polyline points="213,296 219,302 230,290" fill="none" stroke="#FFFFFF" stroke-width="3" stroke-linecap="round" stroke-linejoin="round"/>
  <!-- Todo 列表小图标 -->
  <rect x="140" y="375" width="232" height="8" rx="4" ry="4" fill="#4DB8E8" opacity="0.25"/>
  <rect x="140" y="392" width="180" height="8" rx="4" ry="4" fill="#4DB8E8" opacity="0.15"/>
</svg>
